<svg width="159" height="159" viewBox="0 0 159 159" fill="none" xmlns="http://www.w3.org/2000/svg">
<path d="M137.312 83.1538C138.619 74.5678 137.684 65.7274 135.404 57.3958C133.356 49.9196 130.774 42.2431 124.764 36.9929C117.482 30.6329 108.39 29.803 99.1619 30.881C80.8992 33.0084 75.684 25.1856 62.1722 25.6594C48.6604 26.1332 36.8085 31.8223 33.0148 43.4388C29.221 55.0553 35.1485 67.1457 32.3024 74.0177C29.4563 80.8897 21.3982 87.768 26.1396 97.7246C30.881 107.681 41.3114 115.504 65.508 117.399C89.7046 119.295 110.785 120.245 124.535 107.681C131.97 100.873 135.92 92.2931 137.312 83.1538Z" fill="#7F0FFF"/>
<path opacity="0.7" d="M137.312 83.1538C138.619 74.5678 137.684 65.7274 135.404 57.3958C133.356 49.9196 130.774 42.2431 124.764 36.9929C117.482 30.6329 108.39 29.803 99.1619 30.881C80.8992 33.0084 75.684 25.1856 62.1722 25.6594C48.6604 26.1332 36.8085 31.8223 33.0148 43.4388C29.221 55.0553 35.1485 67.1457 32.3024 74.0177C29.4563 80.8897 21.3982 87.768 26.1396 97.7246C30.881 107.681 41.3114 115.504 65.508 117.399C89.7046 119.295 110.785 120.245 124.535 107.681C131.97 100.873 135.92 92.2931 137.312 83.1538Z" fill="white"/>
<path d="M125.308 111.3L125.33 108.692L92.8783 100.806L36.3697 119.714V122.43C36.3673 122.561 36.4112 122.688 36.4937 122.789C36.5926 122.905 36.7212 122.992 36.8657 123.041L68.6339 136.152C68.8938 136.253 69.165 136.322 69.4417 136.358C70.059 136.446 70.6868 136.43 71.2988 136.311C71.5789 136.259 71.8521 136.174 72.1129 136.06L124.929 111.936C125.039 111.897 125.133 111.824 125.197 111.726C125.283 111.602 125.323 111.451 125.308 111.3Z" fill="white"/>
<mask id="mask0_1_516" style="mask-type:luminance" maskUnits="userSpaceOnUse" x="36" y="100" width="90" height="37">
<path d="M125.308 111.3L125.33 108.692L92.8783 100.806L36.3697 119.714V122.43C36.3673 122.561 36.4112 122.688 36.4937 122.789C36.5926 122.905 36.7212 122.992 36.8657 123.041L68.6339 136.152C68.8938 136.253 69.165 136.322 69.4417 136.358C70.059 136.446 70.6868 136.43 71.2988 136.311C71.5789 136.259 71.8521 136.174 72.1129 136.06L124.929 111.936C125.039 111.897 125.133 111.824 125.197 111.726C125.283 111.602 125.323 111.451 125.308 111.3Z" fill="white"/>
</mask>
<g mask="url(#mask0_1_516)">
<path opacity="0.2" d="M125.197 111.733C125.283 111.609 125.322 111.459 125.308 111.31L125.33 108.702L92.8783 100.806L71.0126 108.12V136.346C71.108 136.346 71.2066 136.32 71.2988 136.301C71.5789 136.249 71.8521 136.165 72.1129 136.05L124.929 111.936C125.038 111.899 125.132 111.828 125.197 111.733Z" fill="black"/>
<path opacity="0.2" d="M70.1381 136.463V132.085H69.0314V136.327C69.3906 136.431 69.7643 136.477 70.1381 136.463Z" fill="black"/>
</g>
<path d="M125.308 111.3L125.33 108.692L92.8783 100.806L36.3697 119.714V122.43C36.3673 122.561 36.4112 122.688 36.4937 122.789C36.5926 122.905 36.7212 122.992 36.8657 123.041L68.6339 136.152C68.8938 136.253 69.165 136.322 69.4417 136.358C70.059 136.446 70.6868 136.43 71.2988 136.311C71.5789 136.259 71.8521 136.174 72.1129 136.06L124.929 111.936C125.039 111.897 125.133 111.824 125.197 111.726C125.283 111.602 125.323 111.451 125.308 111.3Z" stroke="#263238" stroke-miterlimit="10"/>
<path d="M108.705 105.452L104.549 104.399C104.487 104.383 104.425 104.373 104.361 104.368C104.294 104.368 104.225 104.368 104.158 104.368C104.094 104.369 104.03 104.375 103.967 104.384C103.914 104.392 103.862 104.404 103.811 104.422C103.776 104.432 103.744 104.452 103.719 104.479C103.714 104.488 103.711 104.499 103.711 104.509C103.711 104.52 103.714 104.53 103.719 104.539C103.734 104.566 103.757 104.588 103.786 104.6C103.829 104.624 103.877 104.641 103.926 104.651L108.082 105.713C108.146 105.727 108.211 105.738 108.276 105.745H108.483C108.547 105.742 108.612 105.735 108.676 105.725C108.73 105.718 108.782 105.705 108.832 105.687C108.866 105.675 108.896 105.656 108.921 105.63C108.927 105.621 108.93 105.61 108.93 105.598C108.93 105.587 108.927 105.576 108.921 105.566C108.904 105.539 108.88 105.517 108.851 105.503C108.806 105.481 108.758 105.464 108.708 105.452" fill="white"/>
<path d="M120.881 109.042L113.869 107.255H112.721C112.594 107.255 112.47 107.255 112.346 107.255C112.222 107.255 112.098 107.239 111.981 107.223C111.863 107.207 111.742 107.191 111.628 107.172C111.513 107.153 111.408 107.128 111.31 107.102L99.0824 103.964L98.8344 103.887C98.7581 103.859 98.6913 103.83 98.6309 103.802C98.5776 103.774 98.5265 103.742 98.4782 103.706C98.4417 103.678 98.4095 103.645 98.3828 103.608L98.138 103.251L91.8607 101.661L44.0557 118.137L74.2276 129.69L120.881 109.042Z" fill="#7F0FFF" stroke="white" stroke-width="3" stroke-miterlimit="10"/>
<path d="M125.422 108.479C125.344 108.383 125.244 108.307 125.13 108.257C124.957 108.172 124.774 108.108 124.586 108.066L93.9658 100.434C93.7733 100.388 93.5778 100.355 93.3807 100.335C93.1692 100.317 92.9569 100.309 92.7447 100.313C92.5382 100.316 92.3322 100.332 92.1278 100.361C91.9508 100.385 91.7763 100.424 91.6063 100.478L37.1011 118.967C36.8999 119.031 36.7084 119.122 36.5318 119.237C36.4122 119.307 36.3167 119.411 36.2584 119.536C36.2379 119.584 36.2306 119.636 36.2374 119.688C36.2441 119.739 36.2645 119.788 36.2965 119.829C36.3936 119.946 36.5213 120.034 36.6654 120.083L68.6371 133.029C68.8969 133.131 69.1681 133.202 69.4448 133.239C70.0622 133.327 70.6899 133.311 71.302 133.191C71.5821 133.139 71.8553 133.055 72.116 132.94L125.181 108.912C125.291 108.871 125.386 108.797 125.451 108.699C125.466 108.663 125.472 108.624 125.467 108.585C125.462 108.547 125.446 108.51 125.422 108.479ZM74.2244 129.69L44.0557 118.137L91.8575 101.636L98.1348 103.226L98.3797 103.582C98.4063 103.62 98.4385 103.653 98.4751 103.681C98.5234 103.716 98.5744 103.748 98.6277 103.776C98.6881 103.805 98.7549 103.833 98.8312 103.862L99.0793 103.938L111.3 107.09C111.402 107.115 111.51 107.141 111.618 107.16C111.726 107.179 111.85 107.198 111.971 107.211C112.092 107.223 112.213 107.236 112.337 107.242C112.461 107.249 112.585 107.242 112.712 107.242H113.86L120.872 109.029L74.2244 129.69ZM103.716 104.469C103.741 104.443 103.773 104.423 103.808 104.412C103.859 104.395 103.911 104.382 103.964 104.374C104.027 104.365 104.091 104.36 104.155 104.358C104.221 104.358 104.291 104.358 104.358 104.358C104.421 104.363 104.484 104.374 104.546 104.39L108.702 105.442C108.751 105.454 108.799 105.471 108.845 105.493C108.874 105.508 108.898 105.53 108.915 105.557C108.921 105.566 108.924 105.578 108.924 105.589C108.924 105.6 108.921 105.611 108.915 105.621C108.89 105.646 108.86 105.666 108.826 105.678C108.775 105.696 108.723 105.708 108.67 105.716C108.606 105.726 108.541 105.732 108.476 105.735H108.269C108.204 105.728 108.139 105.717 108.075 105.703L103.919 104.641C103.87 104.631 103.823 104.614 103.779 104.59C103.751 104.578 103.728 104.557 103.713 104.53C103.708 104.52 103.707 104.509 103.708 104.499C103.709 104.488 103.713 104.478 103.719 104.469H103.716ZM57.4531 124.548C57.3785 124.608 57.2947 124.655 57.205 124.688C57.0886 124.731 56.9683 124.763 56.8457 124.783C56.7146 124.808 56.5816 124.822 56.4482 124.825C56.3186 124.828 56.1889 124.822 56.0602 124.805C55.9515 124.789 55.8449 124.762 55.7422 124.723C55.6646 124.695 55.5941 124.65 55.5355 124.592C55.5167 124.573 55.5024 124.549 55.4936 124.523C55.4848 124.497 55.4817 124.47 55.4846 124.443C55.5003 124.381 55.5375 124.327 55.5896 124.29C55.6633 124.229 55.7473 124.182 55.8376 124.15C55.954 124.107 56.0744 124.075 56.197 124.055C56.3273 124.033 56.4591 124.02 56.5913 124.017C56.7198 124.013 56.8485 124.02 56.9761 124.036C57.0846 124.051 57.1912 124.078 57.2941 124.115C57.3718 124.141 57.4425 124.185 57.5008 124.243C57.5211 124.261 57.5367 124.285 57.5461 124.311C57.5555 124.337 57.5585 124.365 57.5548 124.392C57.5412 124.455 57.505 124.51 57.4531 124.548Z" fill="#263238"/>
<path d="M57.2909 124.115C57.188 124.078 57.0814 124.051 56.9729 124.036C56.8453 124.02 56.7167 124.013 56.5881 124.017C56.4559 124.02 56.3241 124.033 56.1938 124.055C56.0712 124.075 55.9508 124.107 55.8344 124.15C55.7441 124.182 55.6601 124.229 55.5864 124.29C55.5343 124.327 55.4971 124.381 55.4815 124.443C55.4786 124.47 55.4816 124.497 55.4904 124.523C55.4992 124.549 55.5135 124.573 55.5323 124.592C55.5909 124.65 55.6615 124.695 55.739 124.723C55.8418 124.762 55.9484 124.789 56.057 124.805C56.1857 124.822 56.3154 124.828 56.445 124.825C56.5784 124.822 56.7114 124.808 56.8425 124.783C56.9651 124.763 57.0855 124.731 57.2018 124.688C57.2916 124.655 57.3753 124.608 57.4499 124.548C57.5006 124.51 57.5357 124.454 57.5485 124.392C57.5522 124.365 57.5492 124.337 57.5398 124.311C57.5304 124.285 57.5148 124.261 57.4944 124.243C57.4361 124.185 57.3654 124.141 57.2877 124.115" fill="white"/>
<path d="M46.6792 110.327L47.5887 111.866" stroke="#263238" stroke-miterlimit="10"/>
<path d="M33.3169 87.7267L45.6521 108.587" stroke="#263238" stroke-miterlimit="10"/>
<path d="M57.1128 105.869L57.6311 107.109" stroke="#263238" stroke-miterlimit="10"/>
<path d="M53.5798 97.4161L56.5341 104.482" stroke="#263238" stroke-miterlimit="10"/>
<path d="M115.154 86.5564L108.654 102.526" stroke="#263238" stroke-miterlimit="10"/>
<path d="M116.76 82.6164L115.956 84.5848" stroke="#263238" stroke-miterlimit="10"/>
<path d="M120.366 102.199L118.948 103.76" stroke="#263238" stroke-miterlimit="10"/>
<path d="M129.518 92.131L121.784 100.637" stroke="#263238" stroke-miterlimit="10"/>
<path d="M51.4651 107.99L56.7503 118.207" stroke="#263238" stroke-miterlimit="10"/>
<path d="M116.305 101.646L110.489 109.573" stroke="#263238" stroke-miterlimit="10"/>
<path d="M79.1279 101.646L80.5367 108.692" stroke="#263238" stroke-miterlimit="10"/>
<path d="M53.5766 38.0805C55.4874 38.0805 57.0365 36.5315 57.0365 34.6207C57.0365 32.7099 55.4874 31.1608 53.5766 31.1608C51.6658 31.1608 50.1168 32.7099 50.1168 34.6207C50.1168 36.5315 51.6658 38.0805 53.5766 38.0805Z" fill="white" stroke="white" stroke-width="0.5" stroke-miterlimit="10"/>
<path d="M54.7246 34.3853H52.47C52.2583 34.3853 52.0553 34.4694 51.9056 34.6191C51.7559 34.7688 51.6718 34.9718 51.6718 35.1835V37.0915C52.2232 37.5211 52.9034 37.7519 53.6023 37.7467C54.3012 37.7415 54.9779 37.5006 55.5228 37.0629V35.1994C55.5249 35.0933 55.5058 34.9878 55.4667 34.8891C55.4275 34.7904 55.369 34.7005 55.2947 34.6247C55.2204 34.5489 55.1317 34.4887 55.0338 34.4476C54.9359 34.4065 54.8308 34.3853 54.7246 34.3853Z" fill="#7F0FFF"/>
<path d="M53.5576 34.0387C54.1916 34.0387 54.7055 33.5248 54.7055 32.8907C54.7055 32.2567 54.1916 31.7428 53.5576 31.7428C52.9235 31.7428 52.4096 32.2567 52.4096 32.8907C52.4096 33.5248 52.9235 34.0387 53.5576 34.0387Z" fill="#7F0FFF"/>
<path d="M63.3238 97.6383C64.0192 95.8585 63.14 93.852 61.3602 93.1567C59.5804 92.4613 57.5739 93.3405 56.8786 95.1203C56.1832 96.9001 57.0623 98.9066 58.8421 99.6019C60.6219 100.297 62.6285 99.4182 63.3238 97.6383Z" fill="white" stroke="white" stroke-width="0.5" stroke-miterlimit="10"/>
<path d="M61.25 96.1473H58.9922C58.7813 96.1473 58.5791 96.231 58.43 96.3801C58.2809 96.5292 58.1972 96.7314 58.1972 96.9423V98.8344C58.748 99.2636 59.4277 99.4944 60.1261 99.4892C60.8244 99.484 61.5006 99.2432 62.045 98.8058V96.9423C62.045 96.7314 61.9612 96.5292 61.8121 96.3801C61.663 96.231 61.4608 96.1473 61.25 96.1473Z" fill="#7F0FFF"/>
<path d="M60.0829 95.7975C60.31 95.7975 60.5319 95.7302 60.7207 95.604C60.9095 95.4779 61.0566 95.2986 61.1435 95.0888C61.2304 94.8791 61.2531 94.6482 61.2088 94.4255C61.1645 94.2029 61.0552 93.9983 60.8947 93.8378C60.7341 93.6772 60.5296 93.5679 60.3069 93.5236C60.0842 93.4793 59.8534 93.502 59.6436 93.5889C59.4338 93.6758 59.2545 93.8229 59.1284 94.0117C59.0023 94.2005 58.9349 94.4225 58.9349 94.6495C58.9349 94.8003 58.9646 94.9495 59.0223 95.0888C59.08 95.2281 59.1646 95.3547 59.2712 95.4613C59.3778 95.5679 59.5043 95.6524 59.6436 95.7101C59.7829 95.7678 59.9322 95.7975 60.0829 95.7975Z" fill="#7F0FFF"/>
<path d="M105.287 86.9749C118.782 73.4796 118.782 51.5992 105.287 38.1039C91.7912 24.6085 69.9109 24.6085 56.4155 38.1039C42.9201 51.5992 42.9201 73.4796 56.4155 86.9749C69.9109 100.47 91.7912 100.47 105.287 86.9749Z" fill="white"/>
<mask id="mask1_1_516" style="mask-type:luminance" maskUnits="userSpaceOnUse" x="46" y="27" width="70" height="71">
<path d="M105.287 86.9749C118.782 73.4796 118.782 51.5992 105.287 38.1039C91.7912 24.6085 69.9109 24.6085 56.4155 38.1039C42.9201 51.5992 42.9201 73.4796 56.4155 86.9749C69.9109 100.47 91.7912 100.47 105.287 86.9749Z" fill="white"/>
</mask>
<g mask="url(#mask1_1_516)">
<path opacity="0.18" d="M105.287 86.9749C118.782 73.4796 118.782 51.5992 105.287 38.1039C91.7912 24.6085 69.9109 24.6085 56.4155 38.1039C42.9201 51.5992 42.9201 73.4796 56.4155 86.9749C69.9109 100.47 91.7912 100.47 105.287 86.9749Z" fill="black"/>
<path opacity="0.86" d="M80.8515 77.3026C73.413 77.302 66.1731 74.9022 60.207 70.4594C54.241 66.0167 49.8671 59.7681 47.735 52.6417C46.1972 57.7996 45.8854 63.2453 46.8246 68.545C47.7637 73.8446 49.9277 78.8516 53.1442 83.167C56.3607 87.4824 60.5407 90.9868 65.3511 93.401C70.1615 95.8151 75.4693 97.0723 80.8515 97.0723C86.2337 97.0723 91.5415 95.8151 96.3519 93.401C101.162 90.9868 105.342 87.4824 108.559 83.167C111.775 78.8516 113.939 73.8446 114.878 68.545C115.818 63.2453 115.506 57.7996 113.968 52.6417C111.835 59.7678 107.461 66.0162 101.495 70.4588C95.5296 74.9015 88.2899 77.3015 80.8515 77.3026Z" fill="white"/>
<path d="M79.6081 46.5425L82.8899 48.018L83.7898 49.4935L85.2685 50.0691L85.4307 51.6273L84.8583 52.5304L83.7103 52.7753L81.249 51.7895V51.4715L82.6418 50.8991L82.1489 49.1755L79.9229 48.3551L78.9403 47.0449L79.6081 46.5425ZM100.278 84.4322L97.6546 83.3669L94.446 82.2189H91.902L89.5329 81.726L86.9062 82.3016L85.4307 82.3811H84.5276L82.8072 83.3669L81.1663 84.022L78.9403 82.6291L79.5127 80.3331L78.1199 79.7576H76.479L76.2341 79.0198L76.3963 77.5443L75.8239 76.7239L74.6759 76.886L74.3579 77.7065L72.9651 77.7892L71.7344 76.32L71.232 74.3452L72.4626 72.0493L74.8413 72.2114L75.4964 72.787H76.4822L77.7128 72.0493L78.7781 72.3673L80.2536 74.9113L80.8292 74.8318L80.6639 72.9428L80.1741 71.9602L80.3363 70.402L83.3701 69.0887L83.7803 66.055L85.0936 64.9897L86.1589 63.1039L86.9793 62.9385L88.8651 61.7079L88.9478 61.0528L87.6344 61.1355L87.3896 60.4772H86.496L85.1031 60.7952L85.7582 59.7299L88.6202 58.9095L89.2753 58.1717L90.4233 59.9748L91.1642 60.7157L92.3122 60.3977L91.8193 59.3324L90.0958 58.1018L88.1273 55.8758L86.0762 54.4798L84.1078 54.1618L83.1252 53.1791L81.8118 52.8611L81.6497 53.1791L81.4843 55.5578L81.8023 56.3782L81.09 59.0081L79.4491 57.6947L79.6971 56.5468L77.9736 55.7263L77.2358 54.8264L77.646 52.7753L80.0247 51.0517L80.19 49.0833L79.2869 49.166L78.7113 48.4282L78.4665 47.1975L77.8909 47.1149L77.5729 48.4282L76.673 48.5936L76.2627 45.7316L75.6045 45.3214L74.4565 44.8284L73.14 45.474L74.7777 47.0354L75.0957 48.4282L72.1446 46.2022L70.0935 43.9762L69.9314 41.7502L67.7976 41.0951L66.144 42.1954C65.7464 42.4368 65.3356 42.6555 64.9133 42.8505C64.2659 43.0048 63.608 43.1111 62.9449 43.1685L62.6269 44.5645L60.7412 44.6472L60.9065 45.5471L63.9402 46.04L65.4984 47.7636V50.6256L64.5953 53.1696L64.7607 55.8758L62.4647 59.8953L61.9718 65.8801L62.7096 69.3272L63.7749 71.9507L65.0055 72.116L64.5953 70.8027L63.9402 69.8169L63.53 68.0138L64.2678 67.8485L65.4158 70.8027L66.2394 73.458V75.5918L67.7976 77.4775L70.596 79.5L74.8604 80.648L76.1737 81.8786L77.1563 83.1888L78.6318 84.0919L80.4381 84.5848L82.2411 84.5021C82.2411 84.5021 82.1585 85.3226 82.1585 85.7328C82.1585 86.143 81.0105 87.5359 81.0105 87.5359L80.1105 89.1767L80.7656 90.9798L82.5687 91.7207L85.1127 94.3442L86.2607 94.8371V96.0646L86.4038 96.6402C92.7839 95.6083 98.7447 92.8014 103.604 88.5407L103.649 87.9461L105.875 83.9266L104.81 83.1888L100.278 84.4322ZM108.81 52.0375L107.907 50.4793L106.759 48.6731L106.441 46.2149L107.916 46.4598L107.999 45.6394L106.931 45.5567L107.834 45.1465L108.82 44.574V43.7536L107.834 42.4403L107.624 40.6754C102.855 34.8416 96.3117 30.7247 88.9887 28.9505C81.6656 27.1762 73.9636 27.8418 67.0535 30.846L68.9456 32.1848L67.7976 33.6635L66.2394 33.9815L66.074 36.2075L65.4189 36.4523L64.5985 37.3555L64.6812 38.831L66.074 38.9963L65.508 40.386H66.9008L69.2795 37.3523L69.5275 36.0421L71.8235 35.8767L72.3959 34.891L74.7745 34.6461L75.0225 33.2532L76.7429 33.1706C76.7429 33.1706 77.9736 32.5155 78.2216 32.5155C78.6951 32.6175 79.1606 32.7536 79.6145 32.9225L80.8451 33.9083H82.5655L84.0442 33.0052L85.9299 33.1706C86.2014 33.347 86.511 33.456 86.8331 33.4886C87.2433 33.4886 88.4708 32.913 88.4708 32.913L90.8494 34.3917L91.8352 35.1294V36.3601L93.0659 36.5223L93.4761 35.7845L94.5414 36.2774L94.4587 36.9325L91.9974 37.5908L93.3934 39.3938L96.3444 41.0347L97.5751 42.6756L99.3813 42.8378L99.7916 42.0173L100.447 41.8551L98.3129 40.2143L96.99 40.068L98.0553 39.75L97.0695 38.3572L98.4655 38.2745L100.269 39.2571L100.679 41.2255L101.582 42.294L102.32 44.6726L104.123 45.9828V48.689L106.012 49.9196L105.929 50.8228L105.681 51.8881L106.174 53.3636L106.339 54.1045L107.732 54.3494L108.39 52.9534L108.81 52.0375ZM109.875 43.7695V44.2401L109.465 45.5503L109.71 46.6983L110.613 47.0163V48.5745L109.627 48.1643L109.392 52.6099L108.409 54.4161L109.064 56.7121L110.13 57.6947V62.1245L111.195 65.5684L112.346 68.1951L114.232 68.6848L114.887 67.0439L115.154 66.8372C115.332 65.412 115.421 63.9772 115.421 62.541C115.428 55.8806 113.5 49.3616 109.872 43.7759L109.875 43.7695ZM90.9257 43.248L85.5197 40.8694L83.1411 40.952L82.5655 42.5102L81.5829 41.4449L79.7798 41.8551L79.6145 44.5613L81.09 45.6266L82.1553 44.0684L83.3859 45.2991L85.9299 47.5251L86.4228 49.9037L88.5534 52.6099L91.9974 52.0375L91.9179 50.8069L91.1801 49.4108L91.0148 46.1323L91.8352 44.7362L90.9257 43.248ZM95.3555 45.0542L94.1248 44.7362L93.0595 45.6394L93.6319 48.018H94.7004L95.3555 45.0542ZM102.987 46.6124L100.195 45.156L99.6198 44.1734L98.9648 44.4182L99.5372 46.0591L100.03 48.1929L101.261 48.6826L101.506 48.3646L100.768 47.1339L102.902 47.9544L102.987 46.6124ZM79.0389 76.2182L78.7209 76.5362L81.1822 77.274L82.1648 78.422L83.7262 78.5873L84.2986 77.6842L82.4129 77.3662L79.0389 76.2182ZM86.3529 77.7764L84.6293 78.2693L84.8774 78.9244H87.008L87.4182 78.2693L86.6804 78.352L86.3529 77.7764Z" fill="#7F0FFF"/>
<mask id="mask2_1_516" style="mask-type:luminance" maskUnits="userSpaceOnUse" x="60" y="27" width="56" height="70">
<path d="M79.6081 46.5425L82.8899 48.018L83.7898 49.4935L85.2685 50.0691L85.4307 51.6273L84.8583 52.5304L83.7103 52.7753L81.249 51.7895V51.4715L82.6418 50.8991L82.1489 49.1755L79.9229 48.3551L78.9403 47.0449L79.6081 46.5425ZM100.278 84.4322L97.6546 83.3669L94.446 82.2189H91.902L89.5329 81.726L86.9062 82.3016L85.4307 82.3811H84.5276L82.8072 83.3669L81.1663 84.022L78.9403 82.6291L79.5127 80.3331L78.1199 79.7576H76.479L76.2341 79.0198L76.3963 77.5443L75.8239 76.7239L74.6759 76.886L74.3579 77.7065L72.9651 77.7892L71.7344 76.32L71.232 74.3452L72.4626 72.0493L74.8413 72.2114L75.4964 72.787H76.4822L77.7128 72.0493L78.7781 72.3673L80.2536 74.9113L80.8292 74.8318L80.6639 72.9428L80.1741 71.9602L80.3363 70.402L83.3701 69.0887L83.7803 66.055L85.0936 64.9897L86.1589 63.1039L86.9793 62.9385L88.8651 61.7079L88.9478 61.0528L87.6344 61.1355L87.3896 60.4772H86.496L85.1031 60.7952L85.7582 59.7299L88.6202 58.9095L89.2753 58.1717L90.4233 59.9748L91.1642 60.7157L92.3122 60.3977L91.8193 59.3324L90.0958 58.1018L88.1273 55.8758L86.0762 54.4798L84.1078 54.1618L83.1252 53.1791L81.8118 52.8611L81.6497 53.1791L81.4843 55.5578L81.8023 56.3782L81.09 59.0081L79.4491 57.6947L79.6971 56.5468L77.9736 55.7263L77.2358 54.8264L77.646 52.7753L80.0247 51.0517L80.19 49.0833L79.2869 49.166L78.7113 48.4282L78.4665 47.1975L77.8909 47.1149L77.5729 48.4282L76.673 48.5936L76.2627 45.7316L75.6045 45.3214L74.4565 44.8284L73.14 45.474L74.7777 47.0354L75.0957 48.4282L72.1446 46.2022L70.0935 43.9762L69.9314 41.7502L67.7976 41.0951L66.144 42.1954C65.7464 42.4368 65.3356 42.6555 64.9133 42.8505C64.2659 43.0048 63.608 43.1111 62.9449 43.1685L62.6269 44.5645L60.7412 44.6472L60.9065 45.5471L63.9402 46.04L65.4984 47.7636V50.6256L64.5953 53.1696L64.7607 55.8758L62.4647 59.8953L61.9718 65.8801L62.7096 69.3272L63.7749 71.9507L65.0055 72.116L64.5953 70.8027L63.9402 69.8169L63.53 68.0138L64.2678 67.8485L65.4158 70.8027L66.2394 73.458V75.5918L67.7976 77.4775L70.596 79.5L74.8604 80.648L76.1737 81.8786L77.1563 83.1888L78.6318 84.0919L80.4381 84.5848L82.2411 84.5021C82.2411 84.5021 82.1585 85.3226 82.1585 85.7328C82.1585 86.143 81.0105 87.5359 81.0105 87.5359L80.1105 89.1767L80.7656 90.9798L82.5687 91.7207L85.1127 94.3442L86.2607 94.8371V96.0646L86.4038 96.6402C92.7839 95.6083 98.7447 92.8014 103.604 88.5407L103.649 87.9461L105.875 83.9266L104.81 83.1888L100.278 84.4322ZM108.81 52.0375L107.907 50.4793L106.759 48.6731L106.441 46.2149L107.916 46.4598L107.999 45.6394L106.931 45.5567L107.834 45.1465L108.82 44.574V43.7536L107.834 42.4403L107.624 40.6754C102.855 34.8416 96.3117 30.7247 88.9887 28.9505C81.6656 27.1762 73.9636 27.8418 67.0535 30.846L68.9456 32.1848L67.7976 33.6635L66.2394 33.9815L66.074 36.2075L65.4189 36.4523L64.5985 37.3555L64.6812 38.831L66.074 38.9963L65.508 40.386H66.9008L69.2795 37.3523L69.5275 36.0421L71.8235 35.8767L72.3959 34.891L74.7745 34.6461L75.0225 33.2532L76.7429 33.1706C76.7429 33.1706 77.9736 32.5155 78.2216 32.5155C78.6951 32.6175 79.1606 32.7536 79.6145 32.9225L80.8451 33.9083H82.5655L84.0442 33.0052L85.9299 33.1706C86.2014 33.347 86.511 33.456 86.8331 33.4886C87.2433 33.4886 88.4708 32.913 88.4708 32.913L90.8494 34.3917L91.8352 35.1294V36.3601L93.0659 36.5223L93.4761 35.7845L94.5414 36.2774L94.4587 36.9325L91.9974 37.5908L93.3934 39.3938L96.3444 41.0347L97.5751 42.6756L99.3813 42.8378L99.7916 42.0173L100.447 41.8551L98.3129 40.2143L96.99 40.068L98.0553 39.75L97.0695 38.3572L98.4655 38.2745L100.269 39.2571L100.679 41.2255L101.582 42.294L102.32 44.6726L104.123 45.9828V48.689L106.012 49.9196L105.929 50.8228L105.681 51.8881L106.174 53.3636L106.339 54.1045L107.732 54.3494L108.39 52.9534L108.81 52.0375ZM109.875 43.7695V44.2401L109.465 45.5503L109.71 46.6983L110.613 47.0163V48.5745L109.627 48.1643L109.392 52.6099L108.409 54.4161L109.064 56.7121L110.13 57.6947V62.1245L111.195 65.5684L112.346 68.1951L114.232 68.6848L114.887 67.0439L115.154 66.8372C115.332 65.412 115.421 63.9772 115.421 62.541C115.428 55.8806 113.5 49.3616 109.872 43.7759L109.875 43.7695ZM90.9257 43.248L85.5197 40.8694L83.1411 40.952L82.5655 42.5102L81.5829 41.4449L79.7798 41.8551L79.6145 44.5613L81.09 45.6266L82.1553 44.0684L83.3859 45.2991L85.9299 47.5251L86.4228 49.9037L88.5534 52.6099L91.9974 52.0375L91.9179 50.8069L91.1801 49.4108L91.0148 46.1323L91.8352 44.7362L90.9257 43.248ZM95.3555 45.0542L94.1248 44.7362L93.0595 45.6394L93.6319 48.018H94.7004L95.3555 45.0542ZM102.987 46.6124L100.195 45.156L99.6198 44.1734L98.9648 44.4182L99.5372 46.0591L100.03 48.1929L101.261 48.6826L101.506 48.3646L100.768 47.1339L102.902 47.9544L102.987 46.6124ZM79.0389 76.2182L78.7209 76.5362L81.1822 77.274L82.1648 78.422L83.7262 78.5873L84.2986 77.6842L82.4129 77.3662L79.0389 76.2182ZM86.3529 77.7764L84.6293 78.2693L84.8774 78.9244H87.008L87.4182 78.2693L86.6804 78.352L86.3529 77.7764Z" fill="white"/>
</mask>
<g mask="url(#mask2_1_516)">
<path opacity="0.65" d="M80.8515 77.3026C73.413 77.302 66.173 74.9021 60.207 70.4594C54.241 66.0167 49.8671 59.7681 47.735 52.6417C46.1972 57.7995 45.8854 63.2453 46.8245 68.5449C47.7637 73.8446 49.9277 78.8516 53.1442 83.167C56.3607 87.4824 60.5407 90.9868 65.3511 93.4009C70.1615 95.8151 75.4693 97.0723 80.8515 97.0723C86.2337 97.0723 91.5415 95.8151 96.3519 93.4009C101.162 90.9868 105.342 87.4824 108.559 83.167C111.775 78.8516 113.939 73.8446 114.878 68.5449C115.818 63.2453 115.506 57.7995 113.968 52.6417C111.835 59.7678 107.461 66.0161 101.495 70.4588C95.5295 74.9014 88.2899 77.3015 80.8515 77.3026Z" fill="white"/>
</g>
<path d="M79.6081 46.5425L82.8899 48.018L83.7898 49.4935L85.2685 50.0691L85.4307 51.6273L84.8583 52.5304L83.7103 52.7753L81.249 51.7895V51.4715L82.6418 50.8991L82.1489 49.1755L79.9229 48.3551L78.9403 47.0449L79.6081 46.5425ZM100.278 84.4322L97.6546 83.3669L94.446 82.2189H91.902L89.5329 81.726L86.9062 82.3016L85.4307 82.3811H84.5276L82.8072 83.3669L81.1663 84.022L78.9403 82.6291L79.5127 80.3332L78.1199 79.7576H76.479L76.2341 79.0198L76.3963 77.5443L75.8239 76.7239L74.6759 76.886L74.3579 77.7065L72.9651 77.7892L71.7344 76.32L71.232 74.3452L72.4626 72.0493L74.8413 72.2114L75.4964 72.787H76.4822L77.7128 72.0493L78.7781 72.3673L80.2536 74.9113L80.8292 74.8318L80.6639 72.9428L80.1741 71.9602L80.3363 70.402L83.3701 69.0887L83.7803 66.055L85.0936 64.9896L86.1589 63.1039L86.9793 62.9386L88.8651 61.7079L88.9478 61.0528L87.6344 61.1355L87.3896 60.4772H86.496L85.1031 60.7952L85.7582 59.7299L88.6202 58.9095L89.2753 58.1717L90.4233 59.9748L91.1642 60.7157L92.3122 60.3977L91.8193 59.3324L90.0958 58.1018L88.1273 55.8758L86.0762 54.4798L84.1078 54.1618L83.1252 53.1791L81.8118 52.8611L81.6497 53.1791L81.4843 55.5578L81.8023 56.3782L81.09 59.0081L79.4491 57.6947L79.6971 56.5468L77.9736 55.7263L77.2358 54.8264L77.646 52.7753L80.0247 51.0517L80.19 49.0833L79.2869 49.166L78.7113 48.4282L78.4665 47.1975L77.8909 47.1149L77.5729 48.4282L76.673 48.5936L76.2628 45.7316L75.6045 45.3214L74.4565 44.8285L73.14 45.474L74.7777 47.0354L75.0957 48.4282L72.1446 46.2022L70.0935 43.9762L69.9314 41.7502L67.7976 41.0951L66.144 42.1954C65.7464 42.4368 65.3356 42.6555 64.9133 42.8505C64.2659 43.0048 63.608 43.1111 62.9449 43.1685L62.6269 44.5645L60.7412 44.6472L60.9065 45.5471L63.9402 46.04L65.4984 47.7636V50.6256L64.5953 53.1696L64.7607 55.8758L62.4647 59.8953L61.9718 65.8801L62.7096 69.3272L63.7749 71.9507L65.0055 72.116L64.5953 70.8027L63.9402 69.8169L63.53 68.0138L64.2678 67.8485L65.4158 70.8027L66.2394 73.458V75.5918L67.7976 77.4775L70.596 79.5L74.8604 80.648L76.1737 81.8786L77.1563 83.1888L78.6318 84.0919L80.4381 84.5848L82.2411 84.5021C82.2411 84.5021 82.1585 85.3226 82.1585 85.7328C82.1585 86.143 81.0105 87.5358 81.0105 87.5358L80.1105 89.1767L80.7656 90.9798L82.5687 91.7207L85.1127 94.3442L86.2607 94.8371V96.0646L86.4038 96.6402C92.7839 95.6083 98.7447 92.8014 103.604 88.5407L103.649 87.9461L105.875 83.9266L104.81 83.1888L100.278 84.4322ZM108.81 52.0375L107.907 50.4793L106.759 48.6731L106.441 46.2149L107.916 46.4598L107.999 45.6394L106.931 45.5567L107.834 45.1465L108.82 44.574V43.7536L107.834 42.4403L107.624 40.6754C102.855 34.8416 96.3117 30.7247 88.9887 28.9505C81.6656 27.1762 73.9636 27.8418 67.0535 30.846L68.9456 32.1848L67.7976 33.6635L66.2394 33.9815L66.074 36.2075L65.4189 36.4523L64.5985 37.3555L64.6812 38.831L66.074 38.9963L65.508 40.386H66.9008L69.2795 37.3523L69.5275 36.0421L71.8235 35.8767L72.3959 34.891L74.7745 34.6461L75.0225 33.2532L76.7429 33.1706C76.7429 33.1706 77.9736 32.5155 78.2216 32.5155C78.6951 32.6175 79.1606 32.7536 79.6145 32.9225L80.8451 33.9083H82.5655L84.0442 33.0052L85.9299 33.1706C86.2014 33.347 86.511 33.456 86.8331 33.4886C87.2433 33.4886 88.4708 32.913 88.4708 32.913L90.8494 34.3917L91.8352 35.1295V36.3601L93.0659 36.5223L93.4761 35.7845L94.5414 36.2774L94.4587 36.9325L91.9974 37.5908L93.3934 39.3938L96.3444 41.0347L97.5751 42.6756L99.3813 42.8378L99.7916 42.0173L100.447 41.8551L98.3129 40.2143L96.99 40.068L98.0553 39.75L97.0695 38.3572L98.4655 38.2745L100.269 39.2571L100.679 41.2255L101.582 42.294L102.32 44.6726L104.123 45.9828V48.689L106.012 49.9196L105.929 50.8228L105.681 51.888L106.174 53.3636L106.339 54.1045L107.732 54.3494L108.39 52.9534L108.81 52.0375ZM109.875 43.7695V44.2401L109.465 45.5503L109.71 46.6983L110.613 47.0163V48.5745L109.627 48.1643L109.392 52.6099L108.409 54.4161L109.064 56.7121L110.13 57.6947V62.1245L111.195 65.5684L112.346 68.1951L114.232 68.6848L114.887 67.0439L115.154 66.8372C115.332 65.412 115.421 63.9772 115.421 62.5411C115.428 55.8806 113.5 49.3616 109.872 43.7759L109.875 43.7695ZM90.9257 43.248L85.5197 40.8694L83.1411 40.952L82.5655 42.5102L81.5829 41.4449L79.7798 41.8551L79.6145 44.5613L81.09 45.6266L82.1553 44.0684L83.3859 45.2991L85.9299 47.5251L86.4228 49.9037L88.5534 52.6099L91.9974 52.0375L91.9179 50.8069L91.1801 49.4108L91.0148 46.1323L91.8352 44.7362L90.9257 43.248ZM95.3555 45.0542L94.1248 44.7362L93.0595 45.6394L93.6319 48.018H94.7004L95.3555 45.0542ZM102.987 46.6124L100.195 45.156L99.6198 44.1734L98.9648 44.4182L99.5372 46.0591L100.03 48.1929L101.261 48.6826L101.506 48.3646L100.768 47.134L102.902 47.9544L102.987 46.6124ZM79.0389 76.2182L78.7209 76.5362L81.1822 77.274L82.1648 78.422L83.7262 78.5873L84.2986 77.6842L82.4129 77.3662L79.0389 76.2182ZM86.3529 77.7764L84.6293 78.2693L84.8774 78.9244H87.008L87.4182 78.2693L86.6804 78.352L86.3529 77.7764Z" stroke="#263238" stroke-miterlimit="10"/>
</g>
<path d="M105.287 86.9749C118.782 73.4796 118.782 51.5992 105.287 38.1039C91.7912 24.6085 69.9109 24.6085 56.4155 38.1039C42.9201 51.5992 42.9201 73.4796 56.4155 86.9749C69.9109 100.47 91.7912 100.47 105.287 86.9749Z" stroke="#263238" stroke-miterlimit="10"/>
<path d="M124.142 48.4371C126.028 48.1299 127.308 46.3521 127.001 44.4661C126.694 42.5801 124.916 41.3003 123.03 41.6074C121.144 41.9145 119.864 43.6924 120.171 45.5784C120.479 47.4644 122.256 48.7442 124.142 48.4371Z" fill="white" stroke="white" stroke-width="0.5" stroke-miterlimit="10"/>
<path d="M124.732 44.7903H122.475C122.37 44.7903 122.266 44.811 122.17 44.8511C122.073 44.8913 121.985 44.9501 121.911 45.0243C121.837 45.0984 121.779 45.1864 121.739 45.2833C121.699 45.3801 121.679 45.4838 121.68 45.5885V47.4806C122.23 47.9098 122.91 48.1406 123.608 48.1354C124.307 48.1302 124.983 47.8894 125.527 47.4519V45.5885C125.528 45.4838 125.507 45.3801 125.468 45.2833C125.428 45.1864 125.369 45.0984 125.296 45.0243C125.222 44.9501 125.134 44.8913 125.037 44.8511C124.941 44.811 124.837 44.7903 124.732 44.7903Z" fill="#7F0FFF"/>
<path d="M123.565 44.4405C123.792 44.4405 124.014 44.3732 124.203 44.247C124.392 44.1209 124.539 43.9416 124.626 43.7318C124.713 43.5221 124.735 43.2912 124.691 43.0686C124.647 42.8459 124.538 42.6413 124.377 42.4808C124.216 42.3202 124.012 42.2109 123.789 42.1666C123.567 42.1223 123.336 42.145 123.126 42.2319C122.916 42.3188 122.737 42.4659 122.611 42.6547C122.485 42.8435 122.417 43.0655 122.417 43.2925C122.417 43.4433 122.447 43.5925 122.505 43.7318C122.562 43.8711 122.647 43.9977 122.754 44.1043C122.86 44.2109 122.987 44.2954 123.126 44.3531C123.265 44.4108 123.414 44.4405 123.565 44.4405Z" fill="#7F0FFF"/>
<path d="M99.2033 34.5984C101.114 34.5984 102.663 33.0494 102.663 31.1386C102.663 29.2277 101.114 27.6787 99.2033 27.6787C97.2924 27.6787 95.7434 29.2277 95.7434 31.1386C95.7434 33.0494 97.2924 34.5984 99.2033 34.5984Z" fill="white" stroke="white" stroke-width="0.5" stroke-miterlimit="10"/>
<path d="M100.348 30.9032H98.0934C97.884 30.9066 97.6842 30.9921 97.5373 31.1415C97.3903 31.2908 97.308 31.4919 97.308 31.7014V33.6094C97.8593 34.039 98.5395 34.2698 99.2384 34.2646C99.9374 34.2594 100.614 34.0185 101.159 33.5808V31.7014C101.159 31.5955 101.138 31.4907 101.097 31.393C101.056 31.2953 100.996 31.2068 100.921 31.1325C100.845 31.0582 100.756 30.9997 100.657 30.9603C100.559 30.921 100.454 30.9016 100.348 30.9032Z" fill="#7F0FFF"/>
<path d="M99.181 30.5534C99.815 30.5534 100.329 30.0395 100.329 29.4055C100.329 28.7714 99.815 28.2575 99.181 28.2575C98.547 28.2575 98.033 28.7714 98.033 29.4055C98.033 30.0395 98.547 30.5534 99.181 30.5534Z" fill="#7F0FFF"/>
<path d="M37.1672 55.5955C39.0532 55.2883 40.3331 53.5104 40.0259 51.6245C39.7188 49.7385 37.9409 48.4586 36.0549 48.7658C34.1689 49.0729 32.8891 50.8508 33.1962 52.7367C33.5034 54.6227 35.2812 55.9026 37.1672 55.5955Z" fill="white" stroke="white" stroke-width="0.5" stroke-miterlimit="10"/>
<path d="M37.7593 51.9453H35.5015C35.3968 51.9453 35.2932 51.966 35.1965 52.0061C35.0999 52.0463 35.0121 52.1051 34.9382 52.1793C34.8644 52.2534 34.8059 52.3415 34.7661 52.4383C34.7264 52.5351 34.7061 52.6388 34.7065 52.7435V54.6356C35.2574 55.0649 35.937 55.2956 36.6354 55.2904C37.3338 55.2852 38.0099 55.0444 38.5543 54.607V52.7435C38.5547 52.6388 38.5345 52.5351 38.4947 52.4383C38.455 52.3415 38.3965 52.2534 38.3226 52.1793C38.2487 52.1051 38.1609 52.0463 38.0643 52.0061C37.9676 51.966 37.864 51.9453 37.7593 51.9453Z" fill="#7F0FFF"/>
<path d="M36.5923 51.5955C36.8193 51.5955 37.0413 51.5282 37.23 51.402C37.4188 51.2759 37.566 51.0966 37.6529 50.8868C37.7397 50.6771 37.7625 50.4462 37.7182 50.2236C37.6739 50.0009 37.5645 49.7963 37.404 49.6358C37.2435 49.4752 37.0389 49.3659 36.8162 49.3216C36.5935 49.2773 36.3627 49.3 36.1529 49.3869C35.9432 49.4738 35.7639 49.6209 35.6377 49.8097C35.5116 49.9985 35.4443 50.2205 35.4443 50.4475C35.4443 50.752 35.5652 51.044 35.7805 51.2593C35.9958 51.4745 36.2878 51.5955 36.5923 51.5955Z" fill="#7F0FFF"/>
<path d="M39.3963 77.3766C41.2823 77.0694 42.5622 75.2915 42.255 73.4056C41.9479 71.5196 40.17 70.2397 38.2841 70.5469C36.3981 70.854 35.1182 72.6319 35.4253 74.5178C35.7325 76.4038 37.5104 77.6837 39.3963 77.3766Z" fill="white" stroke="white" stroke-width="0.5" stroke-miterlimit="10"/>
<path d="M39.9853 73.7283H37.7275C37.6228 73.7283 37.5192 73.749 37.4225 73.7891C37.3259 73.8293 37.2381 73.8881 37.1642 73.9623C37.0904 74.0364 37.0319 74.1244 36.9921 74.2213C36.9524 74.3181 36.9321 74.4218 36.9325 74.5265V76.4186C37.4834 76.8479 38.163 77.0786 38.8614 77.0734C39.5598 77.0682 40.2359 76.8274 40.7803 76.39V74.5265C40.7807 74.4218 40.7605 74.3181 40.7207 74.2213C40.681 74.1244 40.6225 74.0364 40.5486 73.9623C40.4747 73.8881 40.3869 73.8293 40.2903 73.7891C40.1936 73.749 40.09 73.7283 39.9853 73.7283Z" fill="#7F0FFF"/>
<path d="M38.8183 73.3785C39.0453 73.3785 39.2673 73.3112 39.456 73.185C39.6448 73.0589 39.792 72.8796 39.8788 72.6698C39.9657 72.46 39.9885 72.2292 39.9442 72.0065C39.8999 71.7839 39.7905 71.5793 39.63 71.4188C39.4695 71.2582 39.2649 71.1489 39.0422 71.1046C38.8195 71.0603 38.5887 71.083 38.3789 71.1699C38.1692 71.2568 37.9899 71.4039 37.8637 71.5927C37.7376 71.7815 37.6703 72.0035 37.6703 72.2305C37.6703 72.535 37.7912 72.827 38.0065 73.0422C38.2218 73.2575 38.5138 73.3785 38.8183 73.3785Z" fill="#7F0FFF"/>
<path d="M56.1664 57.7377C56.8664 55.9597 55.9925 53.9509 54.2146 53.2509C52.4366 52.5509 50.4278 53.4248 49.7278 55.2027C49.0278 56.9807 49.9016 58.9895 51.6796 59.6895C53.4576 60.3895 55.4664 59.5157 56.1664 57.7377Z" fill="white" stroke="white" stroke-width="0.5" stroke-miterlimit="10"/>
<path d="M54.095 56.2383H51.834C51.6231 56.2383 51.4209 56.322 51.2718 56.4711C51.1227 56.6202 51.039 56.8224 51.039 57.0333V58.9413C51.5898 59.3706 52.2695 59.6013 52.9679 59.5961C53.6662 59.5909 54.3424 59.3501 54.8868 58.9127V57.0492C54.8889 56.9437 54.87 56.8389 54.8312 56.7408C54.7924 56.6427 54.7344 56.5533 54.6607 56.4779C54.5871 56.4024 54.4991 56.3423 54.4019 56.3012C54.3048 56.2601 54.2005 56.2387 54.095 56.2383Z" fill="#7F0FFF"/>
<path d="M52.9279 55.8885C53.155 55.8885 53.3769 55.8212 53.5657 55.695C53.7545 55.5689 53.9016 55.3896 53.9885 55.1798C54.0754 54.9701 54.0981 54.7392 54.0538 54.5166C54.0095 54.2939 53.9002 54.0893 53.7397 53.9288C53.5791 53.7682 53.3746 53.6589 53.1519 53.6146C52.9292 53.5703 52.6984 53.593 52.4886 53.6799C52.2788 53.7668 52.0996 53.9139 51.9734 54.1027C51.8473 54.2915 51.7799 54.5135 51.7799 54.7405C51.7799 54.8913 51.8096 55.0405 51.8673 55.1798C51.925 55.3191 52.0096 55.4457 52.1162 55.5523C52.2228 55.6589 52.3493 55.7434 52.4886 55.8011C52.6279 55.8588 52.7772 55.8885 52.9279 55.8885Z" fill="#7F0FFF"/>
<path d="M75.7699 93.8768C77.6807 93.8768 79.2297 92.3277 79.2297 90.4169C79.2297 88.5061 77.6807 86.9571 75.7699 86.9571C73.859 86.9571 72.31 88.5061 72.31 90.4169C72.31 92.3277 73.859 93.8768 75.7699 93.8768Z" fill="white" stroke="white" stroke-width="0.5" stroke-miterlimit="10"/>
<path d="M76.9178 90.1848H74.6632C74.4515 90.1848 74.2485 90.2689 74.0988 90.4186C73.9491 90.5683 73.865 90.7713 73.865 90.983V92.8751C74.4164 93.3046 75.0966 93.5355 75.7955 93.5303C76.4944 93.5251 77.1711 93.2841 77.716 92.8464V90.983C77.716 90.7713 77.6319 90.5683 77.4822 90.4186C77.3325 90.2689 77.1295 90.1848 76.9178 90.1848Z" fill="#7F0FFF"/>
<path d="M75.7508 89.835C76.3848 89.835 76.8987 89.321 76.8987 88.687C76.8987 88.053 76.3848 87.539 75.7508 87.539C75.1168 87.539 74.6028 88.053 74.6028 88.687C74.6028 89.321 75.1168 89.835 75.7508 89.835Z" fill="#7F0FFF"/>
<path d="M100.647 100.529C102.558 100.529 104.107 98.9803 104.107 97.0695C104.107 95.1587 102.558 93.6096 100.647 93.6096C98.7362 93.6096 97.1871 95.1587 97.1871 97.0695C97.1871 98.9803 98.7362 100.529 100.647 100.529Z" fill="white" stroke="white" stroke-width="0.5" stroke-miterlimit="10"/>
<path d="M101.792 96.8373H99.534C99.3229 96.8373 99.1203 96.921 98.9707 97.07C98.8211 97.219 98.7367 97.4212 98.7358 97.6323V99.5403C99.2872 99.9699 99.9674 100.201 100.666 100.196C101.365 100.19 102.042 99.9494 102.587 99.5117V97.626C102.585 97.4162 102.501 97.2157 102.352 97.0679C102.203 96.9202 102.002 96.8373 101.792 96.8373Z" fill="#7F0FFF"/>
<path d="M100.625 96.4875C101.259 96.4875 101.773 95.9736 101.773 95.3396C101.773 94.7056 101.259 94.1916 100.625 94.1916C99.9907 94.1916 99.4767 94.7056 99.4767 95.3396C99.4767 95.9736 99.9907 96.4875 100.625 96.4875Z" fill="#7F0FFF"/>
<path d="M121.386 78.3334C122.045 76.5398 121.126 74.5515 119.332 73.8924C117.539 73.2332 115.55 74.1528 114.891 75.9463C114.232 77.7398 115.152 79.7281 116.945 80.3873C118.739 81.0464 120.727 80.1269 121.386 78.3334Z" fill="white" stroke="white" stroke-width="0.5" stroke-miterlimit="10"/>
<path d="M119.285 76.9083H117.024C116.813 76.9083 116.611 76.9921 116.462 77.1411C116.313 77.2902 116.229 77.4924 116.229 77.7033V79.6113C116.78 80.0406 117.46 80.2713 118.158 80.2661C118.856 80.2609 119.532 80.0201 120.077 79.5827V77.7192C120.079 77.6137 120.06 77.5089 120.021 77.4108C119.982 77.3127 119.924 77.2233 119.851 77.1479C119.777 77.0724 119.689 77.0123 119.592 76.9712C119.495 76.9301 119.39 76.9087 119.285 76.9083Z" fill="#7F0FFF"/>
<path d="M118.118 76.5585C118.345 76.5585 118.567 76.4912 118.756 76.365C118.944 76.2389 119.092 76.0596 119.179 75.8498C119.265 75.6401 119.288 75.4093 119.244 75.1866C119.2 74.9639 119.09 74.7593 118.93 74.5988C118.769 74.4382 118.565 74.3289 118.342 74.2846C118.119 74.2403 117.888 74.263 117.679 74.3499C117.469 74.4368 117.29 74.584 117.163 74.7727C117.037 74.9615 116.97 75.1835 116.97 75.4105C116.97 75.715 117.091 76.007 117.306 76.2223C117.521 76.4376 117.813 76.5585 118.118 76.5585Z" fill="#7F0FFF"/>
<path d="M111.255 45.9955C116.14 49.9546 119.037 54.8995 119.037 60.2356C119.037 73.2736 101.811 83.8502 80.5589 83.8502C59.307 83.8502 42.0809 73.2767 42.0809 60.2356C42.0809 54.5306 45.3786 49.2996 50.8673 45.2164" stroke="white" stroke-width="0.5" stroke-miterlimit="10"/>
<path d="M58.512 36.1725C61.975 30.4962 66.8436 26.712 72.6121 25.8693C86.1653 23.9168 99.5563 39.0568 102.526 59.6854C105.496 80.3141 96.92 98.6182 83.3701 100.571C77.2009 101.458 71.0635 98.8058 65.9278 93.7051" stroke="white" stroke-width="0.5" stroke-miterlimit="10"/>
<path d="M110.551 86.2203C115.054 78.848 103.923 63.8412 85.6876 52.7016C67.4524 41.5621 49.0189 38.5081 44.5153 45.8805C40.0117 53.2528 51.1434 68.2596 69.3786 79.3992C87.6138 90.5387 106.047 93.5927 110.551 86.2203Z" stroke="white" stroke-width="0.5" stroke-miterlimit="10"/>
<path d="M88.5204 77.6666C107.234 66.235 118.753 50.9914 114.249 43.6191C109.746 36.2468 90.9247 39.5375 72.2114 50.9691C53.4981 62.4008 41.9789 77.6443 46.4825 85.0167C50.9861 92.389 69.8071 89.0983 88.5204 77.6666Z" stroke="white" stroke-width="0.5" stroke-miterlimit="10"/>
<path d="M96.6943 40.704C96.6943 40.5782 96.657 40.4552 96.5871 40.3507C96.5172 40.2461 96.4179 40.1645 96.3016 40.1164C96.1854 40.0683 96.0575 40.0557 95.9342 40.0802C95.8108 40.1048 95.6975 40.1653 95.6085 40.2543C95.5196 40.3432 95.459 40.4565 95.4345 40.5799C95.4099 40.7033 95.4225 40.8312 95.4707 40.9474C95.5188 41.0636 95.6003 41.1629 95.7049 41.2328C95.8095 41.3027 95.9325 41.34 96.0583 41.34C96.2269 41.34 96.3887 41.273 96.508 41.1537C96.6273 41.0344 96.6943 40.8727 96.6943 40.704Z" fill="white" stroke="white" stroke-width="0.5" stroke-miterlimit="10"/>
<path d="M103.69 66.7387C103.69 66.6129 103.653 66.4899 103.583 66.3853C103.513 66.2807 103.414 66.1992 103.298 66.1511C103.181 66.1029 103.054 66.0903 102.93 66.1149C102.807 66.1394 102.693 66.2 102.605 66.2889C102.516 66.3779 102.455 66.4912 102.43 66.6146C102.406 66.738 102.419 66.8658 102.467 66.982C102.515 67.0983 102.596 67.1976 102.701 67.2675C102.805 67.3374 102.928 67.3747 103.054 67.3747C103.223 67.3747 103.385 67.3077 103.504 67.1884C103.623 67.0691 103.69 66.9073 103.69 66.7387Z" fill="white" stroke="white" stroke-width="0.5" stroke-miterlimit="10"/>
<path d="M102.291 79.9643C102.291 79.8385 102.254 79.7155 102.184 79.6109C102.114 79.5063 102.015 79.4248 101.898 79.3767C101.782 79.3286 101.654 79.316 101.531 79.3405C101.408 79.365 101.294 79.4256 101.205 79.5146C101.116 79.6035 101.056 79.7168 101.031 79.8402C101.007 79.9636 101.019 80.0915 101.067 80.2077C101.116 80.3239 101.197 80.4232 101.302 80.4931C101.406 80.563 101.529 80.6003 101.655 80.6003C101.824 80.6003 101.985 80.5333 102.105 80.414C102.224 80.2947 102.291 80.133 102.291 79.9643Z" fill="white" stroke="white" stroke-width="0.5" stroke-miterlimit="10"/>
<path d="M98.2334 90.0385C98.2334 89.9127 98.1961 89.7898 98.1262 89.6852C98.0563 89.5806 97.957 89.4991 97.8407 89.4509C97.7245 89.4028 97.5967 89.3902 97.4733 89.4147C97.3499 89.4393 97.2366 89.4999 97.1476 89.5888C97.0587 89.6778 96.9981 89.7911 96.9736 89.9144C96.949 90.0378 96.9616 90.1657 97.0098 90.2819C97.0579 90.3981 97.1394 90.4975 97.244 90.5673C97.3486 90.6372 97.4716 90.6745 97.5974 90.6745C97.766 90.6745 97.9278 90.6075 98.0471 90.4882C98.1664 90.369 98.2334 90.2072 98.2334 90.0385Z" fill="white" stroke="white" stroke-width="0.5" stroke-miterlimit="10"/>
<path d="M110.346 75.684C110.346 75.5582 110.309 75.4352 110.239 75.3307C110.169 75.2261 110.07 75.1446 109.953 75.0964C109.837 75.0483 109.709 75.0357 109.586 75.0602C109.463 75.0848 109.349 75.1453 109.26 75.2343C109.171 75.3232 109.111 75.4366 109.086 75.5599C109.062 75.6833 109.074 75.8112 109.122 75.9274C109.171 76.0436 109.252 76.1429 109.357 76.2128C109.461 76.2827 109.584 76.32 109.71 76.32C109.879 76.32 110.04 76.253 110.16 76.1337C110.279 76.0145 110.346 75.8527 110.346 75.684Z" fill="white" stroke="white" stroke-width="0.5" stroke-miterlimit="10"/>
<path d="M77.662 83.6721C77.662 83.5463 77.6247 83.4234 77.5548 83.3188C77.4849 83.2142 77.3856 83.1327 77.2693 83.0846C77.1531 83.0364 77.0253 83.0238 76.9019 83.0484C76.7785 83.0729 76.6652 83.1335 76.5762 83.2224C76.4873 83.3114 76.4267 83.4247 76.4022 83.5481C76.3776 83.6714 76.3902 83.7993 76.4384 83.9155C76.4865 84.0317 76.568 84.1311 76.6726 84.2009C76.7772 84.2708 76.9002 84.3081 77.026 84.3081C77.1946 84.3081 77.3564 84.2411 77.4757 84.1219C77.5949 84.0026 77.662 83.8408 77.662 83.6721Z" fill="white" stroke="white" stroke-width="0.5" stroke-miterlimit="10"/>
<path d="M48.6953 73.1082C48.6953 72.9824 48.658 72.8594 48.5881 72.7549C48.5183 72.6503 48.4189 72.5687 48.3027 72.5206C48.1865 72.4725 48.0586 72.4599 47.9352 72.4844C47.8119 72.509 47.6986 72.5695 47.6096 72.6585C47.5207 72.7474 47.4601 72.8608 47.4355 72.9841C47.411 73.1075 47.4236 73.2354 47.4717 73.3516C47.5199 73.4678 47.6014 73.5671 47.706 73.637C47.8106 73.7069 47.9335 73.7442 48.0593 73.7442C48.228 73.7442 48.3898 73.6772 48.509 73.5579C48.6283 73.4386 48.6953 73.2769 48.6953 73.1082Z" fill="white" stroke="white" stroke-width="0.5" stroke-miterlimit="10"/>
<path d="M53.5925 66.5288C53.5925 66.403 53.5552 66.28 53.4853 66.1754C53.4155 66.0708 53.3161 65.9893 53.1999 65.9412C53.0837 65.893 52.9558 65.8804 52.8324 65.905C52.7091 65.9295 52.5958 65.9901 52.5068 66.079C52.4179 66.168 52.3573 66.2813 52.3327 66.4047C52.3082 66.5281 52.3208 66.6559 52.3689 66.7721C52.4171 66.8884 52.4986 66.9877 52.6032 67.0576C52.7078 67.1275 52.8307 67.1648 52.9565 67.1648C53.1252 67.1648 53.287 67.0978 53.4062 66.9785C53.5255 66.8592 53.5925 66.6974 53.5925 66.5288Z" fill="white" stroke="white" stroke-width="0.5" stroke-miterlimit="10"/>
<path d="M77.7319 48.1293C77.7319 48.0035 77.6946 47.8805 77.6247 47.7759C77.5548 47.6714 77.4555 47.5898 77.3393 47.5417C77.2231 47.4936 77.0952 47.481 76.9718 47.5055C76.8485 47.53 76.7351 47.5906 76.6462 47.6796C76.5573 47.7685 76.4967 47.8818 76.4721 48.0052C76.4476 48.1286 76.4602 48.2565 76.5083 48.3727C76.5565 48.4889 76.638 48.5882 76.7426 48.6581C76.8472 48.728 76.9701 48.7653 77.0959 48.7653C77.2646 48.7653 77.4264 48.6983 77.5456 48.579C77.6649 48.4597 77.7319 48.298 77.7319 48.1293Z" fill="white" stroke="white" stroke-width="0.5" stroke-miterlimit="10"/>
<path d="M115.513 49.7384C115.513 49.6126 115.476 49.4896 115.406 49.385C115.336 49.2804 115.237 49.1989 115.121 49.1508C115.005 49.1026 114.877 49.09 114.753 49.1146C114.63 49.1391 114.517 49.1997 114.428 49.2886C114.339 49.3776 114.278 49.4909 114.254 49.6143C114.229 49.7377 114.242 49.8655 114.29 49.9817C114.338 50.098 114.42 50.1973 114.524 50.2672C114.629 50.3371 114.752 50.3744 114.877 50.3744C115.046 50.3744 115.208 50.3074 115.327 50.1881C115.446 50.0688 115.513 49.907 115.513 49.7384Z" fill="white" stroke="white" stroke-width="0.5" stroke-miterlimit="10"/>
<path d="M44.7076 52.8166C44.7076 52.6908 44.6703 52.5679 44.6004 52.4633C44.5305 52.3587 44.4312 52.2772 44.315 52.229C44.1988 52.1809 44.0709 52.1683 43.9475 52.1928C43.8242 52.2174 43.7108 52.2779 43.6219 52.3669C43.5329 52.4558 43.4724 52.5692 43.4478 52.6925C43.4233 52.8159 43.4359 52.9438 43.484 53.06C43.5322 53.1762 43.6137 53.2755 43.7183 53.3454C43.8229 53.4153 43.9458 53.4526 44.0716 53.4526C44.2403 53.4526 44.4021 53.3856 44.5213 53.2663C44.6406 53.147 44.7076 52.9853 44.7076 52.8166Z" fill="white" stroke="white" stroke-width="0.5" stroke-miterlimit="10"/>
<path d="M115.507 49.4872L120.506 46.7969" stroke="white" stroke-width="0.5" stroke-miterlimit="10"/>
<path d="M43.4483 52.8166L40.0712 52.1806" stroke="white" stroke-width="0.5" stroke-miterlimit="10"/>
<path d="M52.9629 65.8991V59.9303" stroke="white" stroke-width="0.5" stroke-miterlimit="10"/>
<path d="M47.436 73.1082L42.2972 73.9636" stroke="white" stroke-width="0.5" stroke-miterlimit="10"/>
<path d="M76.8892 84.2922L76.4186 87.0588" stroke="white" stroke-width="0.5" stroke-miterlimit="10"/>
<path d="M97.8422 90.6459L99.3146 93.8513" stroke="white" stroke-width="0.5" stroke-miterlimit="10"/>
<path d="M110.336 75.6967L114.61 76.6126" stroke="white" stroke-width="0.5" stroke-miterlimit="10"/>
<path d="M101.153 79.5032L97.0027 75.5091" stroke="white" stroke-width="0.5" stroke-miterlimit="10"/>
<path d="M96.319 40.138L98.2111 34.5125" stroke="white" stroke-width="0.5" stroke-miterlimit="10"/>
<path d="M56.0888 37.1901L56.8902 37.7911" stroke="white" stroke-width="0.5" stroke-miterlimit="10"/>
<path d="M62.2008 93.5906L63.1007 92.3885" stroke="white" stroke-width="0.5" stroke-miterlimit="10"/>
<path d="M97.6847 74.3835C98.3583 72.5954 97.4547 70.5998 95.6665 69.9262C93.8784 69.2526 91.8827 70.1562 91.2092 71.9444C90.5356 73.7326 91.4392 75.7282 93.2274 76.4017C95.0155 77.0753 97.0112 76.1717 97.6847 74.3835Z" fill="white" stroke="white" stroke-width="0.5" stroke-miterlimit="10"/>
<path d="M95.594 72.9333H93.3362C93.1253 72.9333 92.9231 73.017 92.774 73.1661C92.6249 73.3152 92.5412 73.5174 92.5412 73.7283V75.6363C93.092 76.0656 93.7717 76.2963 94.47 76.2911C95.1684 76.2859 95.8445 76.0451 96.389 75.6077V73.7442C96.3911 73.6385 96.3721 73.5334 96.3331 73.4351C96.2941 73.3368 96.2358 73.2472 96.1618 73.1717C96.0878 73.0962 95.9994 73.0362 95.9019 72.9953C95.8044 72.9543 95.6997 72.9333 95.594 72.9333Z" fill="#7F0FFF"/>
<path d="M94.4269 72.5835C94.654 72.5835 94.8759 72.5162 95.0647 72.39C95.2535 72.2639 95.4006 72.0846 95.4875 71.8748C95.5744 71.6651 95.5971 71.4342 95.5528 71.2116C95.5085 70.9889 95.3992 70.7843 95.2387 70.6238C95.0781 70.4632 94.8736 70.3539 94.6509 70.3096C94.4282 70.2653 94.1974 70.288 93.9876 70.3749C93.7778 70.4618 93.5985 70.6089 93.4724 70.7977C93.3463 70.9865 93.2789 71.2085 93.2789 71.4355C93.2789 71.74 93.3999 72.032 93.6152 72.2473C93.8305 72.4626 94.1225 72.5835 94.4269 72.5835Z" fill="#7F0FFF"/>
<path d="M105.481 58.0031C106.15 56.2131 105.241 54.2199 103.452 53.551C101.662 52.8821 99.6684 53.7909 98.9995 55.5809C98.3306 57.3708 99.2394 59.364 101.029 60.0329C102.819 60.7018 104.813 59.793 105.481 58.0031Z" fill="white" stroke="white" stroke-width="0.5" stroke-miterlimit="10"/>
<path d="M103.385 56.5563H101.124C100.913 56.5563 100.711 56.6401 100.562 56.7892C100.413 56.9382 100.329 57.1405 100.329 57.3513V59.2593C100.88 59.6886 101.559 59.9193 102.258 59.9141C102.956 59.9089 103.632 59.6681 104.177 59.2307V57.3672C104.179 57.2617 104.16 57.1569 104.121 57.0588C104.082 56.9607 104.024 56.8713 103.951 56.7959C103.877 56.7204 103.789 56.6604 103.692 56.6192C103.595 56.5781 103.49 56.5567 103.385 56.5563Z" fill="#7F0FFF"/>
<path d="M102.218 56.2065C102.445 56.2065 102.667 56.1392 102.856 56.013C103.044 55.8869 103.192 55.7076 103.278 55.4978C103.365 55.288 103.388 55.0572 103.344 54.8345C103.3 54.6119 103.19 54.4073 103.03 54.2468C102.869 54.0862 102.665 53.9769 102.442 53.9326C102.219 53.8883 101.988 53.911 101.779 53.9979C101.569 54.0848 101.39 54.2319 101.263 54.4207C101.137 54.6095 101.07 54.8315 101.07 55.0585C101.07 55.363 101.191 55.655 101.406 55.8702C101.621 56.0855 101.913 56.2065 102.218 56.2065Z" fill="#7F0FFF"/>
</svg>
